<svg width="78" height="73" viewBox="0 0 78 73" fill="none" xmlns="http://www.w3.org/2000/svg">
<path d="M70.2992 28.7C69.7992 28.7 69.2992 28.8 68.7992 28.9C66.8992 24.1 63.2992 20.2 58.5992 18C58.5992 17.7 58.6992 17.4 58.6992 17.1C58.6992 13 55.3992 9.69995 51.2992 9.69995C49.5992 9.69995 47.9992 10.3 46.6992 11.3V16.3V19.8V22.8C47.9992 23.8 49.4992 24.4 51.2992 24.4C53.7992 24.4 55.9992 23.1 57.3992 21.2C61.1992 23.1 64.1992 26.3 65.6992 30.3C63.9992 31.6 62.9992 33.7 62.9992 36C62.9992 38.3 64.0992 40.4 65.7992 41.7C64.2992 45.8 61.2992 49.1 57.4992 51C56.1992 49.1 53.9992 47.8 51.3992 47.8C49.6992 47.8 48.0992 48.4 46.7992 49.4V52.4V55.9V60.9C48.0992 61.9 49.5992 62.5 51.3992 62.5C55.4992 62.5 58.7992 59.1999 58.7992 55.0999C58.7992 54.7999 58.7992 54.5 58.6992 54.2C63.3992 52 67.0992 47.9999 68.8992 43.0999C69.3992 43.1999 69.7992 43.2 70.2992 43.2C74.3992 43.2 77.6992 39.9 77.6992 35.8C77.6992 31.7 74.3992 28.7 70.2992 28.7Z" fill="#1372B8"/>
<path d="M0.0999985 7.7L0 65L42.7 72.8V0L0.0999985 7.7ZM24.2 50.6C20.7 53.1 16.2 52.1 12.5 50.6C12.5 48.5 12.4 46.3 12.3 44.2C14.7 45.9 18.1 48.5 20.9 46.1C23.1 42.5 18.8 40.1 16.3 38.4C11 35.2 10.8 26.4 15.9 23C18.9 21.1 22.6 21.7 25.9 22.2C25.9 24.2 26 26.2 26 28.2C23.2 27.3 19.7 25.6 17.4 28.4C15.8 32.5 20.8 34.1 23.2 36.3C28.2 39.3 28.6 47.1 24.2 50.6Z" fill="#1372B8"/>
</svg>
