<svg xmlns="http://www.w3.org/2000/svg" xmlns:xlink="http://www.w3.org/1999/xlink" viewBox="0 0 65 65" fill="#fff" fill-rule="evenodd" stroke="#000" stroke-linecap="round" stroke-linejoin="round" width="300" height="300" font-family="Roboto" font-size="14px" text-anchor="middle"><defs><style type="text/css"></style></defs><use xlink:href="#A" x=".5" y=".5"></use><symbol id="A" overflow="visible"><g stroke="none" fill-rule="nonzero"><path d="M50.5 12.25c-5-4.736-11.63-7.366-18.517-7.345-.574 0-1.162 0-1.742.055-14.546.98-25.7 13.302-25.246 27.874S17.372 59 31.95 59.04h27.075V31.982a26.8 26.8 0 0 0-8.534-19.733zm-29.605 6.2h22.15a2.46 2.46 0 0 1 2.131 3.69 2.46 2.46 0 0 1-2.131 1.229h-22.15a2.46 2.46 0 0 1-2.131-3.69 2.46 2.46 0 0 1 2.131-1.229zm22.15 27.072h-22.15c-1.3-.07-2.337-1.15-2.337-2.463s1.027-2.394 2.337-2.463h22.15c1.3.07 2.337 1.15 2.337 2.463s-1.027 2.393-2.337 2.463zm9.84-13.53a2.46 2.46 0 0 1-2.46 2.46H13.52a2.46 2.46 0 0 1-2.131-3.69 2.46 2.46 0 0 1 2.131-1.229h36.896a2.46 2.46 0 0 1 2.46 2.46z" fill="#f27557"></path><path d="M53.866 8.663C41.27-3.158 21.568-2.842 9.366 9.37s-12.526 31.916-.708 44.5c6.055 6.423 14.486 10.07 23.313 10.085h29.555a2.47 2.47 0 0 0 2.46-2.46V31.982a32.11 32.11 0 0 0-10.12-23.32zm5.16 50.377H31.96C17.383 59 5.46 47.405 4.986 32.833S15.686 5.94 30.233 4.96c.58 0 1.168-.055 1.742-.055 14.944.015 27.05 12.134 27.05 27.078z" fill="#c34027"></path><path d="M43.036 40.585h-22.15c-1.3.07-2.337 1.15-2.337 2.463a2.47 2.47 0 0 0 2.337 2.464h22.15c1.3-.07 2.337-1.15 2.337-2.463s-1.027-2.394-2.337-2.463zM20.886 23.36h22.15a2.46 2.46 0 0 0 2.131-3.69 2.46 2.46 0 0 0-2.131-1.229h-22.15a2.46 2.46 0 0 0-2.131 3.69 2.46 2.46 0 0 0 2.131 1.229zm-7.38 6.156a2.46 2.46 0 1 0 0 4.92h36.897a2.46 2.46 0 1 0 0-4.92z"></path></g></symbol></svg>