<svg width="126" height="127" viewBox="0 0 126 127" fill="none" xmlns="http://www.w3.org/2000/svg">
<g clip-path="url(#clip0)">
<path d="M27.1988 80C27.1988 87.3 21.2988 93.2 13.9988 93.2C6.69883 93.2 0.798828 87.3 0.798828 80C0.798828 72.7 6.69883 66.8 13.9988 66.8H27.1988V80ZM33.7988 80C33.7988 72.7 39.6988 66.8 46.9988 66.8C54.2988 66.8 60.1988 72.7 60.1988 80V113C60.1988 120.3 54.2988 126.2 46.9988 126.2C39.6988 126.2 33.7988 120.3 33.7988 113V80Z" fill="#E01E5A"/>
<path d="M46.9992 27.0001C39.6992 27.0001 33.7992 21.1001 33.7992 13.8001C33.7992 6.5001 39.6992 0.600098 46.9992 0.600098C54.2992 0.600098 60.1992 6.5001 60.1992 13.8001V27.0001H46.9992ZM46.9992 33.7001C54.2992 33.7001 60.1992 39.6001 60.1992 46.9001C60.1992 54.2001 54.2992 60.1001 46.9992 60.1001H13.8992C6.59922 60.1001 0.699219 54.2001 0.699219 46.9001C0.699219 39.6001 6.59922 33.7001 13.8992 33.7001H46.9992Z" fill="#36C5F0"/>
<path d="M99.8984 46.9001C99.8984 39.6001 105.798 33.7001 113.098 33.7001C120.398 33.7001 126.298 39.6001 126.298 46.9001C126.298 54.2001 120.398 60.1001 113.098 60.1001H99.8984V46.9001ZM93.2984 46.9001C93.2984 54.2001 87.3984 60.1001 80.0984 60.1001C72.7984 60.1001 66.8984 54.2001 66.8984 46.9001V13.8001C66.8984 6.5001 72.7984 0.600098 80.0984 0.600098C87.3984 0.600098 93.2984 6.5001 93.2984 13.8001V46.9001V46.9001Z" fill="#2EB67D"/>
<path d="M80.0984 99.8C87.3984 99.8 93.2984 105.7 93.2984 113C93.2984 120.3 87.3984 126.2 80.0984 126.2C72.7984 126.2 66.8984 120.3 66.8984 113V99.8H80.0984ZM80.0984 93.2C72.7984 93.2 66.8984 87.3 66.8984 80C66.8984 72.7 72.7984 66.8 80.0984 66.8H113.198C120.498 66.8 126.398 72.7 126.398 80C126.398 87.3 120.498 93.2 113.198 93.2H80.0984Z" fill="#ECB22E"/>
</g>
<defs>
<clipPath id="clip0">
<rect width="126" height="127" fill="white"/>
</clipPath>
</defs>
</svg>
